<svg width="34" height="30" fill="none" xmlns="http://www.w3.org/2000/svg"><path d="M32.702 4.397 11.88.035a1.642 1.642 0 0 0-1.94 1.25l-.396 2.517 24.026 5.033.396-2.517a1.626 1.626 0 0 0-1.263-1.92ZM23.945 9.368a1.66 1.66 0 0 0-2.034-1.139l-3.953 1.087-9.32-1.953-1.024 4.794-6.404 1.759a1.639 1.639 0 0 0-1.15 2.013l3.609 12.873a1.66 1.66 0 0 0 2.034 1.139l20.7-5.687a1.639 1.639 0 0 0 1.15-2.013l-.619-2.21 2.322.486a1.641 1.641 0 0 0 1.94-1.25l1.47-6.87-8.363-1.752-.358-1.277Zm2.39 6.543.513-2.395a.676.676 0 0 1 .798-.514l2.42.507a.669.669 0 0 1 .52.79l-.513 2.395a.676.676 0 0 1-.798.514l-2.42-.507a.67.67 0 0 1-.52-.79ZM1.572 15.2l20.7-5.686a.312.312 0 0 1 .376.21l.705 2.517L2.064 18.09l-.706-2.517a.306.306 0 0 1 .213-.372Zm24.685 7.396a.295.295 0 0 1-.03.229.296.296 0 0 1-.183.143l-20.7 5.687a.312.312 0 0 1-.376-.21l-2.105-7.51 21.289-5.847 2.105 7.508Z" fill="#2C36F2"/><path d="M8.688 23.11a.677.677 0 0 0-.83-.464l-2.417.665a.668.668 0 0 0-.469.82l.671 2.393c.1.354.472.563.83.464l2.417-.664a.668.668 0 0 0 .47-.82l-.672-2.393Z" fill="#2C36F2"/></svg>