<svg width="28" height="25" viewBox="0 0 30 27" fill="none" xmlns="http://www.w3.org/2000/svg"><path d="M16.75 1h-2.917L1 22.341h3.792l1.75-3.048L16.75 1Z" fill="#2C36F2"/><path d="M2.75 26h24.5L16.75 7.098 15 10.146l5.25 9.147L22 22.342H1L2.75 26Z" fill="#2C36F2"/><path d="m22 22.341-1.75-3.048H6.542l-1.75 3.049H22Z" fill="#2C36F2"/><path d="M27.25 26 29 22.341 16.75 1 6.542 19.293H9.75L15 10.146l1.75-3.048L27.25 26Z" fill="#2C36F2"/><path d="m15 10.146-5.25 9.147h10.5L15 10.146Z" fill="#2C36F2"/><path d="M27.25 26H2.75L1 22.341M27.25 26 29 22.341 16.75 1m10.5 25L16.75 7.098 15 10.146M16.75 1h-2.917L1 22.341M16.75 1 6.542 19.293M1 22.342h3.792M15 10.146l-5.25 9.147M15 10.146l5.25 9.147m-10.5 0h10.5m-10.5 0H6.542m13.708 0L22 22.342H4.792m1.75-3.05-1.75 3.05" stroke="#F6F7FF"/></svg>