<svg width="16" height="16" fill="none" xmlns="http://www.w3.org/2000/svg"><path d="M8 0c2.174 0 2.445.008 3.298.048.852.04 1.432.174 1.942.372a3.9 3.9 0 0 1 1.418.922c.406.4.721.884.922 1.418.198.51.332 1.09.372 1.942C15.99 5.555 16 5.826 16 8s-.008 2.445-.048 3.298c-.04.852-.174 1.432-.372 1.942a3.907 3.907 0 0 1-.922 1.418c-.4.406-.884.721-1.418.922-.51.198-1.09.332-1.942.372C10.445 15.99 10.174 16 8 16s-2.445-.008-3.298-.048c-.852-.04-1.432-.174-1.942-.372a3.911 3.911 0 0 1-1.418-.922A3.923 3.923 0 0 1 .42 13.24c-.198-.51-.332-1.09-.372-1.942C.01 10.445 0 10.174 0 8s.008-2.445.048-3.298C.088 3.85.222 3.27.42 2.76c.2-.534.515-1.018.922-1.418.4-.407.884-.721 1.418-.922C3.27.222 3.85.088 4.702.048 5.555.01 5.826 0 8 0Zm0 4a4 4 0 1 0 0 8 4 4 0 0 0 0-8Zm5.2-.2a1 1 0 1 0-2 0 1 1 0 0 0 2 0ZM8 5.6a2.4 2.4 0 1 1 0 4.8 2.4 2.4 0 0 1 0-4.8Z" fill="#1F1E25"/></svg>